<svg width="113" height="23" viewBox="0 0 113 23" fill="none" xmlns="http://www.w3.org/2000/svg">
<path d="M0.488 18V0.719999H8.24C9.504 0.719999 10.584 0.935999 11.48 1.368C12.392 1.8 13.088 2.408 13.568 3.192C14.064 3.976 14.312 4.904 14.312 5.976C14.312 7.032 14.064 7.96 13.568 8.76C13.072 9.56 12.376 10.184 11.48 10.632C10.584 11.064 9.504 11.28 8.24 11.28H2.912V8.832H8.096C9.088 8.832 9.848 8.576 10.376 8.064C10.92 7.552 11.192 6.856 11.192 5.976C11.192 5.112 10.92 4.432 10.376 3.936C9.848 3.44 9.088 3.192 8.096 3.192H3.608V18H0.488ZM16.1358 18V5.76H19.0878V8.712H19.1598V18H16.1358ZM19.1598 11.616L18.8478 8.712C19.1358 7.672 19.6238 6.88 20.3118 6.336C20.9998 5.792 21.8238 5.52 22.7838 5.52C23.1198 5.52 23.3598 5.552 23.5038 5.616V8.472C23.4238 8.44 23.3118 8.424 23.1678 8.424C23.0238 8.408 22.8478 8.4 22.6398 8.4C21.4718 8.4 20.5998 8.656 20.0238 9.168C19.4478 9.68 19.1598 10.496 19.1598 11.616ZM30.4582 18.24C29.1622 18.24 28.0182 17.968 27.0262 17.424C26.0502 16.88 25.2902 16.128 24.7462 15.168C24.2022 14.192 23.9302 13.08 23.9302 11.832C23.9302 10.584 24.2022 9.488 24.7462 8.544C25.2902 7.6 26.0502 6.864 27.0262 6.336C28.0182 5.792 29.1622 5.52 30.4582 5.52C31.7702 5.52 32.9142 5.792 33.8902 6.336C34.8662 6.864 35.6262 7.6 36.1702 8.544C36.7142 9.488 36.9862 10.584 36.9862 11.832C36.9862 13.08 36.7062 14.192 36.1462 15.168C35.6022 16.128 34.8422 16.88 33.8662 17.424C32.8902 17.968 31.7542 18.24 30.4582 18.24ZM30.4582 15.816C31.0982 15.816 31.6742 15.656 32.1862 15.336C32.6982 15 33.0982 14.536 33.3862 13.944C33.6742 13.336 33.8182 12.624 33.8182 11.808C33.8182 10.608 33.4982 9.664 32.8582 8.976C32.2342 8.288 31.4342 7.944 30.4582 7.944C29.4822 7.944 28.6742 8.288 28.0342 8.976C27.3942 9.664 27.0742 10.608 27.0742 11.808C27.0742 12.624 27.2182 13.336 27.5062 13.944C27.8102 14.536 28.2102 15 28.7062 15.336C29.2182 15.656 29.8022 15.816 30.4582 15.816ZM43.4574 18.24C41.7614 18.24 40.4094 17.888 39.4014 17.184C38.3934 16.464 37.8414 15.472 37.7454 14.208H40.5054C40.5854 14.832 40.8814 15.304 41.3934 15.624C41.9054 15.944 42.5934 16.104 43.4574 16.104C44.2414 16.104 44.8254 15.984 45.2094 15.744C45.6094 15.488 45.8094 15.128 45.8094 14.664C45.8094 14.328 45.6974 14.056 45.4734 13.848C45.2494 13.624 44.8254 13.44 44.2014 13.296L42.2334 12.84C40.8894 12.552 39.8894 12.104 39.2334 11.496C38.5934 10.872 38.2734 10.096 38.2734 9.168C38.2734 8.032 38.7054 7.144 39.5694 6.504C40.4494 5.848 41.6574 5.52 43.1934 5.52C44.7134 5.52 45.9294 5.848 46.8414 6.504C47.7694 7.144 48.2814 8.032 48.3774 9.168H45.6174C45.5374 8.672 45.2814 8.296 44.8494 8.04C44.4334 7.784 43.8574 7.656 43.1214 7.656C42.4334 7.656 41.9134 7.768 41.5614 7.992C41.2094 8.2 41.0334 8.512 41.0334 8.928C41.0334 9.248 41.1694 9.52 41.4414 9.744C41.7134 9.952 42.1694 10.136 42.8094 10.296L44.9214 10.776C46.1214 11.048 47.0254 11.52 47.6334 12.192C48.2574 12.864 48.5694 13.656 48.5694 14.568C48.5694 15.736 48.1214 16.64 47.2254 17.28C46.3294 17.92 45.0734 18.24 43.4574 18.24ZM57.1408 18.24C55.9728 18.24 55.0208 17.968 54.2848 17.424C53.5648 16.864 53.1168 16.096 52.9408 15.12L53.1808 15.096V22.92H50.1568V5.76H53.1088V8.52L52.8688 8.472C53.0928 7.56 53.6048 6.84 54.4048 6.312C55.2048 5.784 56.1808 5.52 57.3328 5.52C58.4208 5.52 59.3648 5.784 60.1648 6.312C60.9808 6.824 61.6128 7.552 62.0608 8.496C62.5088 9.44 62.7328 10.552 62.7328 11.832C62.7328 13.128 62.5008 14.256 62.0368 15.216C61.5728 16.176 60.9248 16.92 60.0928 17.448C59.2608 17.976 58.2768 18.24 57.1408 18.24ZM56.3728 15.744C57.3488 15.744 58.1248 15.408 58.7008 14.736C59.2768 14.048 59.5648 13.088 59.5648 11.856C59.5648 10.624 59.2688 9.672 58.6768 9C58.1008 8.328 57.3248 7.992 56.3488 7.992C55.3888 7.992 54.6128 8.336 54.0208 9.024C53.4288 9.696 53.1328 10.648 53.1328 11.88C53.1328 13.112 53.4288 14.064 54.0208 14.736C54.6128 15.408 55.3968 15.744 56.3728 15.744ZM70.2431 18.24C68.9471 18.24 67.8111 17.968 66.8351 17.424C65.8751 16.88 65.1231 16.128 64.5791 15.168C64.0511 14.208 63.7871 13.104 63.7871 11.856C63.7871 10.608 64.0511 9.512 64.5791 8.568C65.1231 7.608 65.8751 6.864 66.8351 6.336C67.7951 5.792 68.9151 5.52 70.1951 5.52C71.4111 5.52 72.4671 5.776 73.3631 6.288C74.2591 6.784 74.9551 7.488 75.4511 8.4C75.9471 9.312 76.1951 10.376 76.1951 11.592C76.1951 11.816 76.1871 12.024 76.1711 12.216C76.1551 12.408 76.1311 12.6 76.0991 12.792H65.6591V10.68H73.7711L73.1471 11.256C73.1471 10.104 72.8831 9.24 72.3551 8.664C71.8271 8.088 71.0911 7.8 70.1471 7.8C69.1231 7.8 68.3071 8.152 67.6991 8.856C67.1071 9.56 66.8111 10.576 66.8111 11.904C66.8111 13.216 67.1071 14.224 67.6991 14.928C68.3071 15.616 69.1631 15.96 70.2671 15.96C70.9071 15.96 71.4671 15.84 71.9471 15.6C72.4271 15.36 72.7791 14.992 73.0031 14.496H75.8591C75.4591 15.648 74.7791 16.56 73.8191 17.232C72.8751 17.904 71.6831 18.24 70.2431 18.24ZM77.978 18V5.76H80.93V8.712H81.002V18H77.978ZM81.002 11.616L80.69 8.712C80.978 7.672 81.466 6.88 82.154 6.336C82.842 5.792 83.666 5.52 84.626 5.52C84.962 5.52 85.202 5.552 85.346 5.616V8.472C85.266 8.44 85.154 8.424 85.01 8.424C84.866 8.408 84.69 8.4 84.482 8.4C83.314 8.4 82.442 8.656 81.866 9.168C81.29 9.68 81.002 10.496 81.002 11.616ZM86.6621 18V5.76H89.6861V18H86.6621ZM86.5181 3.744V0.407999H89.8061V3.744H86.5181ZM97.7718 18.24C96.2678 18.24 95.1558 17.888 94.4358 17.184C93.7318 16.464 93.3798 15.392 93.3798 13.968V2.976L96.4278 1.848V14.04C96.4278 14.632 96.5878 15.072 96.9078 15.36C97.2278 15.648 97.7318 15.792 98.4198 15.792C98.6918 15.792 98.9318 15.776 99.1398 15.744C99.3638 15.696 99.5718 15.64 99.7638 15.576V17.928C99.5718 18.024 99.2998 18.096 98.9478 18.144C98.5958 18.208 98.2038 18.24 97.7718 18.24ZM91.0278 8.136V5.76H99.7638V8.136H91.0278ZM102.408 22.92L105.576 15.816L106.128 14.904L109.584 5.76H112.8L105.48 22.92H102.408ZM105.12 17.88L100.152 5.76H103.44L107.592 16.752L105.12 17.88Z" fill="#37363D"/>
</svg>
