<svg xmlns="http://www.w3.org/2000/svg" width="36" height="36" viewBox="0 0 36 36" fill="none">
  <!-- Vertical stem (left side) -->
  <path d="M8 28H12C13.1046 28 14 27.1046 14 26V10C14 8.89543 13.1046 8 12 8H8C6.89543 8 6 8.89543 6 10V26C6 27.1046 6.89543 28 8 28Z" fill="#1570EF"/>
  
  <!-- Top curve of P -->
  <path d="M12 8H22C24.2091 8 26 9.79086 26 12V16C26 18.2091 24.2091 20 22 20H12C10.8954 20 10 19.1046 10 18V10C10 8.89543 10.8954 8 12 8Z" fill="#6927DA"/>
  
  <!-- Inner curve of P -->
  <path d="M14 12H22C22.5523 12 23 12.4477 23 13V15C23 15.5523 22.5523 16 22 16H14C13.4477 16 13 15.5523 13 15V13C13 12.4477 13.4477 12 14 12Z" fill="#F23E94"/>
</svg>